<svg width="233" height="37" viewBox="0 0 233 37" fill="none" xmlns="http://www.w3.org/2000/svg">
<path d="M0 11.6978C0 13.7651 1.67591 15.4411 3.74325 15.4411C5.81057 15.4411 7.48649 13.7651 7.48649 11.6978C7.48649 9.63048 5.81057 7.95459 3.74325 7.95459C1.67591 7.95459 0 9.63048 0 11.6978Z" fill="#FFCC33"/>
<path d="M0 30.4141C0 32.4815 1.67591 34.1574 3.74325 34.1574C5.81057 34.1574 7.48649 32.4815 7.48649 30.4141C7.48649 28.3468 5.81057 26.6709 3.74325 26.6709C1.67591 26.6709 0 28.3468 0 30.4141Z" fill="#FFCC33"/>
<path d="M1.40356 21.0559C1.40356 22.348 2.45102 23.3954 3.74313 23.3954C5.03524 23.3954 6.08269 22.348 6.08269 21.0559C6.08269 19.7638 5.03524 18.7163 3.74313 18.7163C2.45102 18.7163 1.40356 19.7638 1.40356 21.0559Z" fill="#FFCC33"/>
<path d="M1.40356 2.33956C1.40356 3.63168 2.45102 4.67913 3.74313 4.67913C5.03524 4.67913 6.08269 3.63168 6.08269 2.33956C6.08269 1.04746 5.03524 0 3.74313 0C2.45102 0 1.40356 1.04746 1.40356 2.33956Z" fill="#FFCC33"/>
<path d="M14.3649 24.5181C14.3649 26.5855 16.0408 28.2614 18.1081 28.2614C20.1755 28.2614 21.8513 26.5855 21.8513 24.5181C21.8513 22.4508 20.1755 20.7749 18.1081 20.7749C16.0408 20.7749 14.3649 22.4508 14.3649 24.5181Z" fill="#FFCC33"/>
<path d="M15.7686 33.8766C15.7686 35.1687 16.816 36.2163 18.1081 36.2163C19.4002 36.2163 20.4477 35.1687 20.4477 33.8766C20.4477 32.5846 19.4002 31.5371 18.1081 31.5371C16.816 31.5371 15.7686 32.5846 15.7686 33.8766Z" fill="#FFCC33"/>
<path d="M15.7686 15.1604C15.7686 16.4525 16.816 17.4999 18.1081 17.4999C19.4002 17.4999 20.4477 16.4525 20.4477 15.1604C20.4477 13.8683 19.4002 12.8208 18.1081 12.8208C16.816 12.8208 15.7686 13.8683 15.7686 15.1604Z" fill="#FFCC33"/>
<path d="M15.7686 5.80197C15.7686 7.09405 16.816 8.14153 18.1081 8.14153C19.4002 8.14153 20.4477 7.09405 20.4477 5.80197C20.4477 4.50985 19.4002 3.4624 18.1081 3.4624C16.816 3.4624 15.7686 4.50985 15.7686 5.80197Z" fill="#FFCC33"/>
<path d="M28.7297 11.6978C28.7297 13.7651 30.4056 15.4411 32.473 15.4411C34.5404 15.4411 36.2163 13.7651 36.2163 11.6978C36.2163 9.63048 34.5404 7.95459 32.473 7.95459C30.4056 7.95459 28.7297 9.63048 28.7297 11.6978Z" fill="#FFCC33"/>
<path d="M30.1334 2.33956C30.1334 3.63168 31.1809 4.67913 32.473 4.67913C33.765 4.67913 34.8126 3.63168 34.8126 2.33956C34.8126 1.04746 33.765 0 32.473 0C31.1809 0 30.1334 1.04746 30.1334 2.33956Z" fill="#FFCC33"/>
<path d="M30.1334 21.0559C30.1334 22.348 31.1809 23.3954 32.473 23.3954C33.765 23.3954 34.8126 22.348 34.8126 21.0559C34.8126 19.7638 33.765 18.7163 32.473 18.7163C31.1809 18.7163 30.1334 19.7638 30.1334 21.0559Z" fill="#FFCC33"/>
<path d="M30.1334 30.4138C30.1334 31.7059 31.1809 32.7534 32.473 32.7534C33.765 32.7534 34.8126 31.7059 34.8126 30.4138C34.8126 29.1217 33.765 28.0742 32.473 28.0742C31.1809 28.0742 30.1334 29.1217 30.1334 30.4138Z" fill="#FFCC33"/>
<path d="M58.8339 26.8392H59.9115L64.1475 11.2244L66.2527 10.9236V9.896H60.5634V10.9236L62.8441 11.2494L59.6612 22.829L55.9265 11.2244L58.4578 10.9236V9.896H51.6405V10.9236L54.1469 11.2244L50.3373 22.7287L47.2543 11.1993L49.5604 10.9236V9.896H42.743V10.9236L44.8231 11.1743L49.3346 26.8392H50.4126L54.4977 13.831L58.8339 26.8392Z" fill="white"/>
<path d="M71.4319 15.5856C72.9857 15.5856 74.1638 16.8638 74.1638 18.2925C74.1638 19.0193 73.888 19.5958 72.685 19.5958H68.1233C68.3992 16.6884 70.0283 15.5856 71.4319 15.5856ZM71.5821 14.4326C68.4493 14.4326 65.8175 16.9891 65.8175 20.8239C65.8175 24.6587 68.0232 26.9896 71.4067 26.9896C73.6877 26.9896 75.2915 25.8618 76.219 24.0822L75.6175 23.606C74.7153 24.6587 73.7377 25.3605 72.1335 25.3605C69.7276 25.3605 68.1233 23.7314 68.0733 20.6485H76.0688C76.1689 20.3227 76.2442 19.8214 76.2442 19.2449C76.2442 16.2122 74.1887 14.4326 71.5821 14.4326Z" fill="white"/>
<path d="M81.3009 11.6755C82.2284 11.6755 82.9801 10.9987 82.9801 10.0714C82.9801 9.09388 82.2284 8.46729 81.3009 8.46729C80.3483 8.46729 79.6215 9.09388 79.6215 10.0714C79.6215 10.9987 80.3483 11.6755 81.3009 11.6755ZM84.1582 25.7614L82.4038 25.4105C82.3786 24.1573 82.3534 22.5031 82.3534 21.4003V18.0918L82.4287 14.6831L82.0526 14.4325L78.193 15.9614V16.8386L80.1981 17.0642C80.2482 18.0668 80.2734 18.8437 80.2734 20.2223V21.4003C80.2734 22.5031 80.2482 24.1573 80.223 25.4105L78.3432 25.7614V26.6637H84.1582V25.7614Z" fill="white"/>
<path d="M90.972 15.4602C92.5258 15.4602 93.428 16.6884 93.428 18.4679C93.428 20.3227 92.4757 21.651 90.8715 21.651C89.3177 21.651 88.4403 20.3978 88.4403 18.5682C88.4403 16.7385 89.393 15.4602 90.972 15.4602ZM86.4104 18.5431C86.4104 20.2475 87.1372 21.4254 88.3402 22.0771C87.0868 23.2301 86.6358 24.0822 86.6358 24.8592C86.6358 25.8367 87.1873 26.4633 88.2901 26.7641C86.4352 27.6664 85.8337 28.5436 85.8337 29.6214C85.8337 31.4009 87.3875 32.6541 91.0221 32.6541C95.1324 32.6541 97.2127 30.4986 97.2127 28.318C97.2127 26.2878 95.9345 25.0848 93.1774 25.0848H89.894C88.7162 25.0848 88.4403 24.6587 88.4403 23.982C88.4403 23.4055 88.6409 22.9293 89.067 22.3779C89.6185 22.5533 90.2451 22.6536 90.9216 22.6536C93.5285 22.6536 95.4583 21.1748 95.4583 18.5431C95.4583 17.6408 95.2577 16.8638 94.8817 16.2623H97.3381V14.6833L96.9621 14.4326L94.13 15.4101C93.3279 14.7585 92.225 14.4326 90.9468 14.4326C88.3402 14.4326 86.4104 15.9114 86.4104 18.5431ZM91.1222 31.5011C89.1423 31.5011 87.8889 30.8495 87.8889 29.2203C87.8889 28.3932 88.1648 27.7165 88.8664 26.9646C89.1924 26.9896 89.5432 27.0147 89.894 27.0147H92.8265C94.631 27.0147 95.333 27.8669 95.333 28.9697C95.333 30.3733 93.8541 31.5011 91.1222 31.5011Z" fill="white"/>
<path d="M100.341 21.4004C100.341 22.5032 100.316 24.1574 100.291 25.4106L98.4112 25.7615V26.6638H104.226V25.7615L102.497 25.4106C102.471 24.1574 102.447 22.5032 102.447 21.4004V17.8664C103.725 16.7135 104.752 16.2372 105.981 16.2372C107.459 16.2372 108.036 16.9641 108.036 19.27V21.4004C108.036 22.5533 108.011 24.1825 107.986 25.4357L106.156 25.7615V26.6638H111.971V25.7615L110.216 25.4106C110.191 24.1574 110.166 22.5533 110.166 21.4004V19.0694C110.166 15.7861 109.113 14.4326 106.958 14.4326C105.379 14.4326 103.6 15.3851 102.371 16.7636V11.9012L102.471 8.34211L102.121 8.1416L98.2859 9.26949V10.1467L100.341 10.3973V21.4004Z" fill="white"/>
<path d="M117.026 23.8565V16.0867H120.435V14.7583H117.076L117.202 11.3496H115.698L115.046 14.7082L112.815 14.9839V16.0867H114.896V22.0018C114.896 22.9793 114.871 23.5056 114.871 24.1322C114.871 26.0872 115.973 26.9895 117.728 26.9895C119.006 26.9895 120.034 26.5133 120.686 25.6611L120.084 25.0094C119.457 25.4606 118.956 25.6861 118.405 25.6861C117.552 25.6861 117.026 25.1348 117.026 23.8565Z" fill="white"/>
<path d="M125.753 26.9896C128.987 26.9896 130.641 25.3104 130.641 23.4055C130.641 21.8265 129.689 20.6485 127.182 19.7211L126.405 19.4454C124.701 18.8188 124.099 18.3927 124.099 17.2899C124.099 16.2623 124.901 15.5856 126.43 15.5856C127.032 15.5856 127.608 15.7359 128.16 16.0117L128.561 18.0168H129.864L129.964 15.4602C128.887 14.8086 127.809 14.4326 126.455 14.4326C123.648 14.4326 122.094 16.137 122.094 17.9666C122.094 19.671 123.297 20.6735 125.127 21.3503L126.28 21.7764C127.859 22.3278 128.611 22.8791 128.611 23.9569C128.611 25.0848 127.708 25.8618 125.803 25.8618C125.027 25.8618 124.375 25.7364 123.773 25.4607L123.297 23.2802H121.919L122.019 26.0372C123.247 26.6638 124.35 26.9896 125.753 26.9896Z" fill="white"/>
<path d="M143.022 15.5604C142.095 14.4075 141.894 13.6305 141.894 12.7282C141.894 11.3998 142.897 10.3973 144.175 10.3973C145.403 10.3973 146.356 11.2996 146.356 12.7533C146.356 14.207 145.253 15.3098 143.699 16.3875C143.473 16.1369 143.248 15.8612 143.022 15.5604ZM154.251 26.7389L154.351 25.6361L151.92 25.3103C151.143 24.5083 150.491 23.7814 149.864 23.1297C151.017 21.4003 151.895 19.5456 152.471 17.2648L154.376 16.9139V15.9113H149.288V16.9139L151.268 17.2397C150.817 19.2198 150.115 20.8489 149.188 22.4029C148.211 21.3502 147.308 20.3978 146.306 19.2949C145.428 18.3425 144.827 17.6658 144.3 17.0643C146.857 15.6857 148.01 14.4576 148.01 12.7282C148.01 10.8484 146.682 9.52002 144.2 9.52002C141.844 9.52002 140.09 10.8735 140.09 13.0791C140.09 14.4075 140.566 15.6857 141.819 17.1144C141.844 17.1645 141.894 17.1896 141.919 17.2397C139.413 18.4929 138.135 20.1722 138.135 22.428C138.135 24.9594 140.29 26.9896 143.423 26.9896C145.829 26.9896 147.433 26.0622 148.536 24.8591C148.812 25.185 149.113 25.4857 149.413 25.8367C150.24 26.6888 151.017 26.9896 152.346 26.9896C152.998 26.9896 153.499 26.9144 154.251 26.7389ZM145.253 21.1748C146.105 22.1272 146.907 23.0295 147.809 24.0571C146.857 24.9093 145.503 25.3855 144.1 25.3855C141.669 25.3855 140.315 23.5809 140.315 21.7512C140.315 20.498 140.791 18.9942 142.521 17.9415C143.348 18.8939 144.125 19.7962 145.253 21.1748Z" fill="white"/>
<path d="M164.806 18.8939C164.806 21.0745 164.806 23.2551 164.756 25.3604L162.45 25.6361V26.6638H169.342C174.155 26.6638 176.034 24.3579 176.034 22.077C176.034 20.0469 174.631 18.4177 171.297 17.9415C174.079 17.365 175.182 15.7609 175.182 13.9814C175.182 11.6003 173.202 9.896 169.718 9.896H162.45V10.9236L164.756 11.1993C164.806 13.3548 164.806 15.5103 164.806 17.6658V18.8939ZM168.565 18.5681C172.024 18.5681 173.528 19.7461 173.528 22.077C173.528 24.2827 171.974 25.4857 168.766 25.4857H167.237C167.187 23.3553 167.187 21.1998 167.187 18.5681H168.565ZM168.966 11.0489C171.523 11.0489 172.826 11.876 172.826 14.1569C172.826 16.4377 171.523 17.4151 168.49 17.4151H167.187C167.187 15.4351 167.187 13.2044 167.237 11.0489H168.966Z" fill="white"/>
<path d="M180.945 11.6755C181.872 11.6755 182.624 10.9987 182.624 10.0714C182.624 9.09388 181.872 8.46729 180.945 8.46729C179.992 8.46729 179.266 9.09388 179.266 10.0714C179.266 10.9987 179.992 11.6755 180.945 11.6755ZM183.802 25.7614L182.048 25.4105C182.022 24.1573 181.998 22.5031 181.998 21.4003V18.0918L182.073 14.6831L181.697 14.4325L177.837 15.9614V16.8386L179.842 17.0642C179.892 18.0668 179.917 18.8437 179.917 20.2223V21.4003C179.917 22.5031 179.892 24.1573 179.867 25.4105L177.987 25.7614V26.6637H183.802V25.7614Z" fill="white"/>
<path d="M195.002 26.9145C195.879 26.9145 196.581 26.5886 197.182 25.6111L196.681 25.0597C196.405 25.3856 196.129 25.6111 195.703 25.6111C195.152 25.6111 194.801 25.2101 194.801 24.1324V18.7938C194.801 15.6357 193.548 14.4326 190.916 14.4326C188.36 14.4326 186.505 15.6357 186.029 17.5406C186.104 18.1922 186.505 18.5682 187.207 18.5682C187.884 18.5682 188.285 18.1421 188.51 17.3651L188.986 15.7359C189.513 15.6106 189.964 15.5856 190.34 15.5856C191.994 15.5856 192.696 16.1871 192.696 18.6183V19.2449C191.693 19.4705 190.641 19.7963 189.864 20.072C186.48 21.3001 185.703 22.428 185.703 23.8567C185.703 25.937 187.232 26.9896 189.062 26.9896C190.54 26.9896 191.368 26.338 192.746 24.9845C192.947 26.1625 193.799 26.9145 195.002 26.9145ZM187.934 23.4807C187.934 22.7288 188.21 21.7764 190.39 20.9242C190.916 20.7237 191.819 20.4229 192.696 20.1723V24.0321C191.267 25.0346 190.791 25.3354 189.939 25.3354C188.786 25.3354 187.934 24.8091 187.934 23.4807Z" fill="white"/>
<path d="M202.34 26.9896C205.573 26.9896 207.228 25.3104 207.228 23.4055C207.228 21.8265 206.275 20.6485 203.769 19.7211L202.992 19.4454C201.288 18.8188 200.686 18.3927 200.686 17.2899C200.686 16.2623 201.488 15.5856 203.017 15.5856C203.618 15.5856 204.195 15.7359 204.746 16.0117L205.147 18.0168H206.451L206.551 15.4602C205.473 14.8086 204.396 14.4326 203.042 14.4326C200.235 14.4326 198.681 16.137 198.681 17.9666C198.681 19.671 199.884 20.6735 201.714 21.3503L202.867 21.7764C204.446 22.3278 205.197 22.8791 205.197 23.9569C205.197 25.0848 204.295 25.8618 202.39 25.8618C201.613 25.8618 200.962 25.7364 200.36 25.4607L199.884 23.2802H198.505L198.606 26.0372C199.834 26.6638 200.937 26.9896 202.34 26.9896Z" fill="white"/>
<path d="M214.937 15.5856C216.491 15.5856 217.669 16.8638 217.669 18.2925C217.669 19.0193 217.393 19.5958 216.19 19.5958H211.629C211.904 16.6884 213.534 15.5856 214.937 15.5856ZM215.088 14.4326C211.954 14.4326 209.323 16.9891 209.323 20.8239C209.323 24.6587 211.528 26.9896 214.912 26.9896C217.193 26.9896 218.797 25.8618 219.724 24.0822L219.123 23.606C218.221 24.6587 217.243 25.3605 215.639 25.3605C213.233 25.3605 211.629 23.7314 211.579 20.6485H219.574C219.674 20.3227 219.749 19.8214 219.749 19.2449C219.749 16.2122 217.694 14.4326 215.088 14.4326Z" fill="white"/>
<path d="M225.984 26.9896C229.218 26.9896 230.872 25.3104 230.872 23.4055C230.872 21.8265 229.92 20.6485 227.413 19.7211L226.636 19.4454C224.932 18.8188 224.33 18.3927 224.33 17.2899C224.33 16.2623 225.132 15.5856 226.661 15.5856C227.263 15.5856 227.839 15.7359 228.391 16.0117L228.792 18.0168H230.095L230.195 15.4602C229.118 14.8086 228.04 14.4326 226.686 14.4326C223.879 14.4326 222.325 16.137 222.325 17.9666C222.325 19.671 223.528 20.6735 225.358 21.3503L226.511 21.7764C228.09 22.3278 228.842 22.8791 228.842 23.9569C228.842 25.0848 227.939 25.8618 226.035 25.8618C225.258 25.8618 224.606 25.7364 224.005 25.4607L223.528 23.2802H222.15L222.25 26.0372C223.478 26.6638 224.581 26.9896 225.984 26.9896Z" fill="white"/>
</svg>
